<?xml version="1.0" encoding="UTF-8" standalone="no"?>
<!DOCTYPE svg PUBLIC "-//W3C//DTD SVG 1.1//EN" "http://www.w3.org/Graphics/SVG/1.1/DTD/svg11.dtd">
<svg width="100%" height="100%" viewBox="0 0 1512 273" version="1.1" xmlns="http://www.w3.org/2000/svg" xmlns:xlink="http://www.w3.org/1999/xlink" xml:space="preserve" xmlns:serif="http://www.serif.com/" style="fill-rule:evenodd;clip-rule:evenodd;stroke-linejoin:round;stroke-miterlimit:2;">
    <g transform="matrix(0.64,0,0,0.64,0,0)">
        <g transform="matrix(9.83551,0,0,9.35706,-2251.44,-7982.54)">
            <g transform="matrix(50,0,0,50,221.745,895.524)">
                <path d="M0.15,-0.722L0.875,-0.722L0.371,-0.002L0.276,-0.002L0.726,-0.646L0.15,-0.646L0.15,-0.722Z" style="fill-rule:nonzero;"/>
            </g>
            <g transform="matrix(50,0,0,50,271.745,895.524)">
                <path d="M0.339,-0.609L0.419,-0.609L0.198,-0.002L0.118,-0.002L0.339,-0.609ZM0.572,-0.103L0.878,-0.359L0.878,-0.261L0.572,-0.004L0.496,-0.004L0.496,-0.73L0.572,-0.73L0.572,-0.103Z" style="fill-rule:nonzero;"/>
            </g>
            <g transform="matrix(50,0,0,50,321.745,895.524)">
                <path d="M0.908,-0.193L0.908,-0.115L0.539,-0.115L0.539,0.052L0.461,0.052L0.461,-0.115L0.093,-0.115L0.093,-0.193L0.461,-0.193L0.461,-0.276L0.181,-0.276L0.181,-0.69L0.649,-0.69L0.718,-0.808L0.808,-0.808L0.739,-0.69L0.819,-0.69L0.819,-0.276L0.539,-0.276L0.539,-0.193L0.908,-0.193ZM0.539,-0.351L0.74,-0.351L0.74,-0.446L0.539,-0.446L0.539,-0.351ZM0.74,-0.52L0.74,-0.615L0.539,-0.615L0.539,-0.52L0.74,-0.52ZM0.461,-0.615L0.26,-0.615L0.26,-0.52L0.461,-0.52L0.461,-0.615ZM0.26,-0.351L0.461,-0.351L0.461,-0.446L0.26,-0.446L0.26,-0.351ZM0.509,-0.699L0.419,-0.699L0.359,-0.803L0.449,-0.803L0.509,-0.699ZM0.318,-0.699L0.228,-0.699L0.168,-0.803L0.258,-0.803L0.318,-0.699Z" style="fill-rule:nonzero;"/>
            </g>
            <g transform="matrix(50,0,0,50,371.745,895.524)">
                <path d="M0.849,-0.585L0.849,-0.51L0.583,-0.51L0.378,-0.002L0.296,-0.002L0.501,-0.51L0.152,-0.51L0.152,-0.585L0.531,-0.585L0.59,-0.73L0.672,-0.73L0.614,-0.585L0.849,-0.585Z" style="fill-rule:nonzero;"/>
            </g>
            <g transform="matrix(50,0,0,50,421.745,895.524)">
                <path d="M0.28,-0.088L0.811,-0.088L0.811,-0.013L0.203,-0.013L0.203,-0.736L0.28,-0.736L0.28,-0.398L0.783,-0.632L0.783,-0.55L0.28,-0.315L0.28,-0.088ZM0.792,-0.84L0.845,-0.84L0.94,-0.674L0.888,-0.674L0.792,-0.84ZM0.721,-0.798L0.774,-0.798L0.87,-0.632L0.817,-0.632L0.721,-0.798Z" style="fill-rule:nonzero;"/>
            </g>
        </g>
    </g>
</svg>
